<?xml version="1.0" encoding="utf-8"?>
<!-- Generator: Adobe Illustrator 15.0.2, SVG Export Plug-In  -->
<!DOCTYPE svg PUBLIC "-//W3C//DTD SVG 1.1//EN" "http://www.w3.org/Graphics/SVG/1.1/DTD/svg11.dtd" [
	<!ENTITY ns_flows "http://ns.adobe.com/Flows/1.0/">
]>
<svg version="1.1"
	 xmlns="http://www.w3.org/2000/svg" xmlns:xlink="http://www.w3.org/1999/xlink" xmlns:a="http://ns.adobe.com/AdobeSVGViewerExtensions/3.0/"
	 x="0px" y="0px" width="842px" height="595px" viewBox="-123.304 -50.069 842 595"
	 overflow="visible" enable-background="new -123.304 -50.069 842 595" xml:space="preserve">
<defs>
</defs>
<path fill="#FFFFFF" d="M570.619,195.54v-35.931l-2.69-9.975c-0.766-1.197-12.763-22.089-36.775-43.569
	c-18.221-16.296-44.217-33.025-77.124-40.073V0C309.499,10.465,294.38,123.934,294.38,123.934v1.04
	c-0.117,0.118-0.274,0.275-0.393,0.412c-5.184-6.027-11.466-12.625-18.908-19.32c-23.973-21.401-61.043-43.647-109.835-43.647
	c-48.851,0-85.548,22.325-109.03,43.785c-23.503,21.578-35.009,42.588-35.696,43.785l-2.532,9.621v35.931H0v299.624h595.279V195.54
	H570.619L570.619,195.54z M106.576,434.375c15.924-9.404,35.283-16.257,58.707-16.296c23.326,0,42.98,6.872,59.257,16.296H106.576z
	 M274.117,420.69c-23.895-21.088-60.631-42.843-108.834-42.843h-0.078c-47.438,0-83.368,21.048-106.793,41.88V165.323
	c4.144-6.322,13.155-18.83,26.802-30.866c18.79-16.492,44.943-31.631,80.069-31.631c36.128,0,63.616,16.258,82.917,33.398
	c9.581,8.521,17.023,17.18,21.854,23.581c1.688,2.18,3.023,4.222,4.063,5.753V420.69z M421.377,35.087v27.351v40.389v234.005
	c0,0-54.408-9.699-106.381,37.463V164.636l0,0v-23.738C314.996,140.897,334.514,52.464,421.377,35.087z M362.669,434.375
	c15.982-9.404,35.362-16.257,58.668-16.296c23.346,0,43.059,6.872,59.355,16.296H362.669z M530.289,420.69
	c-24.013-21.166-60.67-42.843-108.952-42.843c-47.397-0.039-83.368,21.048-106.87,41.88v-1.609
	c45.198-61.397,139.582-45.062,139.582-45.062V107.598c20.518,6.106,37.306,17.062,50.343,28.607
	c9.621,8.521,16.866,17.18,21.696,23.581c1.728,2.18,3.102,4.222,4.182,5.753V420.69H530.289z"/>
</svg>
