<?xml version="1.0" encoding="utf-8"?>
<!-- Generator: Adobe Illustrator 15.0.2, SVG Export Plug-In  -->
<!DOCTYPE svg PUBLIC "-//W3C//DTD SVG 1.0//EN" "http://www.w3.org/TR/2001/REC-SVG-20010904/DTD/svg10.dtd" [
	<!ENTITY ns_flows "http://ns.adobe.com/Flows/1.0/">
]>
<svg version="1.0"
	 xmlns="http://www.w3.org/2000/svg" xmlns:xlink="http://www.w3.org/1999/xlink" xmlns:a="http://ns.adobe.com/AdobeSVGViewerExtensions/3.0/"
	 x="0px" y="0px" width="30px" height="30px" viewBox="0.2 0.3 30 30" overflow="visible" enable-background="new 0.2 0.3 30 30"
	 xml:space="preserve">
<defs>
</defs>
<circle fill="none" stroke="#BBBBBB" stroke-miterlimit="10" cx="15.2" cy="15.2" r="14.7"/>
<polygon fill="#BBBBBB" points="11.3,16 12.8,15.1 12.8,7.4 11.2,7.4 11.2,14.5 9,14.5 9,12.9 7.4,12.9 7.4,15.1 8.9,16 "/>
<polygon fill="#BBBBBB" points="18.7,14.4 17.3,15.3 17.3,18.6 18.7,19.5 21.5,19.5 21.5,21.6 18.7,21.6 18.7,20.7 17.1,20.7 
	17.1,22.2 18.6,23 21.5,23 23,22.2 23,18.8 21.5,17.9 18.8,17.9 18.8,15.9 21.5,15.9 21.5,16.8 23,16.8 23,15.3 21.5,14.4 "/>
<rect x="4.3" y="14.7" transform="matrix(0.7071 -0.7071 0.7071 0.7071 -6.3138 15.2419)" fill="#BBBBBB" width="21.9" height="1.1"/>
</svg>
