<?xml version="1.0" encoding="utf-8"?>
<!-- Generator: Adobe Illustrator 15.0.2, SVG Export Plug-In  -->
<!DOCTYPE svg PUBLIC "-//W3C//DTD SVG 1.0//EN" "http://www.w3.org/TR/2001/REC-SVG-20010904/DTD/svg10.dtd" [
	<!ENTITY ns_flows "http://ns.adobe.com/Flows/1.0/">
]>
<svg version="1.0"
	 xmlns="http://www.w3.org/2000/svg" xmlns:xlink="http://www.w3.org/1999/xlink" xmlns:a="http://ns.adobe.com/AdobeSVGViewerExtensions/3.0/"
	 x="0px" y="0px" width="30px" height="30px" viewBox="-0.3 -0.2 30 30"
	 overflow="visible" enable-background="new -0.3 -0.2 30 30" xml:space="preserve">
<defs>
</defs>
<path fill="#BBBBBB" d="M29.5,14.7c0,8.1-6.6,14.7-14.7,14.7S0,22.9,0,14.7S6.6,0,14.7,0S29.5,6.6,29.5,14.7z M10.8,15.5l1.5-0.9
	V6.9h-1.6V14H8.5v-1.6H6.9v2.2l1.5,0.9H10.8z M18.2,13.9l-1.5,0.9v3.3l1.5,0.9H21v2.1h-2.7v-0.9h-1.6v1.5l1.5,0.9H21l1.5-0.9v-3.4
	L21,17.4h-2.7v-2H21v0.9h1.6v-1.5L21,13.9H18.2z M22.1,6.6L6.6,22.1l0.8,0.8L22.9,7.4L22.1,6.6z"/>
</svg>
