<?xml version="1.0" encoding="utf-8"?>
<!-- Generator: Adobe Illustrator 15.0.2, SVG Export Plug-In  -->
<!DOCTYPE svg PUBLIC "-//W3C//DTD SVG 1.1//EN" "http://www.w3.org/Graphics/SVG/1.1/DTD/svg11.dtd" [
	<!ENTITY ns_flows "http://ns.adobe.com/Flows/1.0/">
]>
<svg version="1.1"
	 xmlns="http://www.w3.org/2000/svg" xmlns:xlink="http://www.w3.org/1999/xlink" xmlns:a="http://ns.adobe.com/AdobeSVGViewerExtensions/3.0/"
	 x="0px" y="0px" width="842px" height="595px" viewBox="-123.304 -29.707 842 595"
	 overflow="visible" enable-background="new -123.304 -29.707 842 595" xml:space="preserve">
<defs>
</defs>
<path fill="#FFFFFF" d="M590.967,4.323c-4.067-4.05-10.096-5.386-15.426-3.445l-106.64,38.563c-2.032,0.729-3.876,1.899-5.409,3.434
	l-176.5,176.491L175.711,99.276c-2.57-2.773-6.14-4.334-9.882-4.575l-5.392-28.56c-2.358-12.662-11.972-22.918-24.46-26.13
	L26.689,11.911c-1.206-0.318-4.083-0.683-5.332-0.683c-5.701,0-11.071,2.229-15.159,6.306c-5.255,5.292-7.39,13.091-5.546,20.395
	l28.092,109.277c3.184,12.47,13.411,22.07,26.074,24.472l27.232,6.122c0.101,3.976,1.803,7.739,4.714,10.443l120.085,111.265
	L77.861,428.487c-11.875,11.888-18.418,27.678-18.418,44.456c0,16.788,6.56,32.579,18.457,44.485
	c11.877,11.887,27.686,18.427,44.472,18.427c16.79,0,32.602-6.54,44.476-18.427l132.347-132.351l150.059,139.036
	c8.172,7.578,18.804,11.753,29.949,11.753c11.782,0,22.868-4.596,31.214-12.942c16.849-16.846,17.346-43.715,1.154-61.186
	L372.565,311.717l179.892-179.901c1.535-1.526,2.706-3.378,3.437-5.411l38.51-106.658C596.338,14.366,595.016,8.359,590.967,4.323z
	 M101.33,150.409l-41.026-7.684c-1.457-0.28-2.646-1.383-3.009-2.83L37.418,62.564l31.77,31.763
	c-1.765,6.647-0.363,13.978,4.854,19.186c7.789,7.799,20.435,7.79,28.207,0c7.789-7.79,7.809-20.417,0-28.214
	c-5.199-5.21-12.511-6.61-19.147-4.854L51.304,48.661l77.343,19.898c1.443,0.364,2.554,1.543,2.824,3.021l7.616,40.328
	c0.231,1.228-0.176,2.485-1.074,3.396l-33.943,33.961C103.324,149.995,102.342,150.409,101.33,150.409z M98.735,496.592
	c-6.328-6.343-9.826-14.736-9.826-23.649c0-6.599,2.018-13.095,5.647-18.554l46.333,46.327
	C128.056,509.013,109.79,507.642,98.735,496.592z M162.223,480.379l-47.291-47.285l113.542-113.547l49.097,45.492L162.223,480.379z
	 M489.966,481.768c5.377,5.807,5.202,14.729-0.384,20.32c-5.393,5.4-14.715,5.613-20.298,0.411L118.021,177.028l46.488-46.496
	L489.966,481.768z M352.518,290.084l-45.491-49.09L473.911,74.122l47.293,47.277L352.518,290.084z M536.056,94.584l-35.327-35.322
	l29.765-10.743l16.304,16.317L536.056,94.584z"/>
</svg>
