<?xml version="1.0" encoding="utf-8"?>
<!-- Generator: Adobe Illustrator 15.0.2, SVG Export Plug-In  -->
<!DOCTYPE svg PUBLIC "-//W3C//DTD SVG 1.1//EN" "http://www.w3.org/Graphics/SVG/1.1/DTD/svg11.dtd" [
	<!ENTITY ns_flows "http://ns.adobe.com/Flows/1.0/">
]>
<svg version="1.1"
	 xmlns="http://www.w3.org/2000/svg" xmlns:xlink="http://www.w3.org/1999/xlink" xmlns:a="http://ns.adobe.com/AdobeSVGViewerExtensions/3.0/"
	 x="0px" y="0px" width="842px" height="595px" viewBox="-123.304 -45.445 842 595"
	 overflow="visible" enable-background="new -123.304 -45.445 842 595" xml:space="preserve">
<defs>
</defs>
<path fill="#FFFFFF" d="M536.375,0H179.524c-32.526,0-58.907,26.383-58.907,58.907v55.442h51.117V69.574
	c0-12.388,10.021-22.409,22.409-22.409h327.611c12.389,0,22.409,10.021,22.409,22.409V280.27c0,12.392-10.019,22.408-22.409,22.408
	H369.103v73.511c0,0-0.217,97.677-0.251,98.52c-0.412,10.332-3.408,19.922-8.277,28.373h106.074
	c12.387,0,22.405-10.017,22.405-22.406v-28.651c0-12.39-10.019-22.408-22.405-22.408h-54.683v-39.748h124.408
	c32.526,0,58.904-26.381,58.904-58.909V58.906C595.279,26.382,568.901,0,536.375,0z M507.432,361.157
	c-10.162,0-18.379-8.24-18.379-18.393c0-10.139,8.216-18.361,18.379-18.361c10.134,0,18.372,8.223,18.372,18.361
	C525.804,352.918,517.565,361.157,507.432,361.157z"/>
<path fill="#FFFFFF" d="M306.85,144.41H95.682c-17.769,0-32.195,14.427-32.195,32.198v45.068h44.192v-26.754h187.173V416.15h-103.94
	v35.797c2.995-2.097,6.42-3.602,10.357-3.602c10.136,0,18.377,8.221,18.377,18.358c0,10.154-8.241,18.391-18.377,18.391
	c-3.938,0-7.362-1.502-10.357-3.596v5.245c0,6.24-1.291,12.13-3.363,17.647H306.85c17.767,0,32.195-14.419,32.195-32.19V176.608
	C339.045,158.837,324.616,144.41,306.85,144.41z"/>
<path fill="#FFFFFF" d="M140.771,248.646H20.08C8.981,248.646,0,257.63,0,268.724v214.925c0,11.099,8.981,20.083,20.08,20.083
	h120.691c11.097,0,20.084-8.984,20.084-20.083V268.724C160.855,257.63,151.868,248.646,140.771,248.646z M80.435,492.281
	c-8.529,0-15.459-6.929-15.459-15.478c0-8.515,6.929-15.424,15.459-15.424c8.515,0,15.443,6.91,15.443,15.424
	C95.878,485.353,88.949,492.281,80.435,492.281z M128.228,429.597H32.644V288.593h95.586v141.004H128.228z"/>
</svg>
